<?xml version="1.0" encoding="utf-8"?>
<!-- Generator: Adobe Illustrator 22.0.1, SVG Export Plug-In . SVG Version: 6.00 Build 0)  -->
<svg version="1.1" id="Layer_3" xmlns="http://www.w3.org/2000/svg" xmlns:xlink="http://www.w3.org/1999/xlink" x="0px" y="0px"
	 viewBox="0 0 529 183" style="enable-background:new 0 0 529 183;" xml:space="preserve">
<style type="text/css">
	.st0{display:none;fill:#B3B3B3;}
	.st1{fill:#FFFFFF;}
	.st2{fill:#C1272D;}
	.st3{fill:#C1272D;stroke:#C1272D;stroke-width:0.5;stroke-miterlimit:10;}
	.st4{fill:none;}
</style>
<rect x="-192" y="-463" class="st0" width="1000" height="1200"/>
<g>
	<path class="st1" d="M10.9,146.8L28,44.2h30.2c7,0,12.6,0.6,16.8,1.9c4.3,1.3,8.4,3.7,12.3,7.3c4,3.6,7.2,8.5,9.7,14.8
		c2.5,6.3,3.7,13.5,3.7,21.7c0,9.6-1.8,18.5-5.4,26.9c-3.6,8.4-7.9,14.8-13.1,19.3c-5.1,4.5-10.1,7.4-15,8.8c-4.9,1.4-11.8,2-20.9,2
		H10.9z M32.2,131.3h16.4c5.5,0,9.8-0.7,13.1-2.1c3.3-1.4,6.4-3.9,9.5-7.3c3-3.5,5.5-8.4,7.3-14.9c1.8-6.5,2.7-13.1,2.7-20
		c0-5.6-0.9-10.7-2.8-15.2s-4.6-7.7-8.3-9.6c-3.6-1.9-8.6-2.8-14.8-2.8H44.3L32.2,131.3z"/>
	<path class="st1" d="M187.4,146.8h-20.5l-4.2-24.8h-37.2l-11.4,24.8H96.7l49.2-102.6h22.8L187.4,146.8z M161,107.7l-8-45.6
		l-21.1,45.6H161z"/>
</g>
<g>
	<polygon class="st1" points="218,147 257.5,147 236.8,70.6 	"/>
	<polygon class="st1" points="228.6,44 190,44 210,119.3 	"/>
	<polygon class="st1" points="168,44 184,147 198.1,147 169.9,44 	"/>
	<path class="st1" d="M375.1,73.8c3-10.3,8.2-19.7,15.1-27.7L354,10v32.8h10.7L375.1,73.8z"/>
	<polygon class="st1" points="288.6,44 248.4,44 269,119.3 	"/>
	<polygon class="st1" points="305.3,44 277.7,147 306.8,147 341,44 	"/>
	<polygon class="st1" points="335.6,107.6 366.2,107.6 350.9,60.8 	"/>
	<polygon class="st1" points="371.3,122.8 330.9,122.8 322.9,147 354.5,147 354.5,180.5 385.7,147.8 379.7,147.8 	"/>
	<path class="st2" d="M447,20c-22.7,0-43.1,10.1-56.9,26.1l26.3,26.3V42.8H484v15.6h-48.6v28.5h39.1v15.2h-39.1v29.4h49.3v16.3
		h-68.2v-32.2l-20.2,21.2l3.7,11h-6.1c13.6,13.7,32.4,22.2,53.3,22.2c41.4,0,75-33.6,75-75C522,53.6,488.4,20,447,20z"/>
	<path class="st3" d="M396.2,136.8l20.2-21.2V72.4l-26.3-26.3c-6.8,8-12,17.3-15.1,27.7L396.2,136.8z"/>
	<path class="st4" d="M385.7,147.8h8c-1.4-1.4-2.7-2.8-3.9-4.3L385.7,147.8z"/>
	<path class="st1" d="M396.2,136.8l-6.4,6.7c1.3,1.5,2.6,2.9,3.9,4.3h6.1L396.2,136.8z"/>
	<path class="st1" d="M372,95c0,18.5,6.7,35.4,17.8,48.5l6.4-6.7l-21.1-63C373.1,80.5,372,87.6,372,95z"/>
	<polygon class="st4" points="416.4,115.6 416.4,147.8 484.6,147.8 484.6,131.5 435.4,131.5 435.4,102.1 474.4,102.1 474.4,86.9 
		435.4,86.9 435.4,58.4 484,58.4 484,42.8 416.4,42.8 416.4,72.4 437.5,93.5 	"/>
	<polygon class="st1" points="437.5,93.5 416.4,72.4 416.4,115.6 	"/>
</g>
</svg>
