<?xml version="1.0" encoding="utf-8"?>
<!-- Generator: Adobe Illustrator 22.0.1, SVG Export Plug-In . SVG Version: 6.00 Build 0)  -->
<svg version="1.1" id="Layer_3" xmlns="http://www.w3.org/2000/svg" xmlns:xlink="http://www.w3.org/1999/xlink" x="0px" y="0px"
	 viewBox="0 0 529 183" style="enable-background:new 0 0 529 183;" xml:space="preserve">
<style type="text/css">
	.st0{fill:#FFFFFF;}
	.st1{fill:none;}
	.st2{fill:#C1272D;}
</style>
<path class="st0" d="M20.4,50h39.8c9.5,0,17.9,1.8,25.2,5.4c7.3,3.6,13,8.7,17,15.3c4,6.6,6.1,14.3,6.1,23s-2,16.4-6.1,23
	c-4,6.6-9.7,11.7-17,15.3c-7.3,3.6-15.7,5.4-25.2,5.4H20.4V50z M59.1,120.8c8.8,0,15.7-2.4,20.9-7.3c5.2-4.9,7.8-11.5,7.8-19.8
	c0-8.3-2.6-14.9-7.8-19.8c-5.2-4.9-12.2-7.3-20.9-7.3H40.6v54.3H59.1z"/>
<g>
	<polygon class="st1" points="432.2,117.3 432.2,137.5 500,137.5 500,121.2 452.4,121.2 452.4,101 493,101 493,85.2 452.4,85.2 
		452.4,66.2 498.4,66.2 498.4,50 432.2,50 432.2,68.1 456,93 	"/>
	<polygon class="st0" points="317.5,50 277.1,50 297.1,112 	"/>
	<polygon class="st0" points="336.9,50 308.4,137 329.6,137 368.4,50 	"/>
	<path class="st0" d="M400.5,77.1c2.6-10.3,7.5-19.7,14.1-27.5L375,8v42h13.4L400.5,77.1z"/>
	<path class="st0" d="M224,137l-27-87h-31.5l0,0h-20l-39,87.5h20.8l7.8-18.8h40.6L183,137H224z M141.5,103.3l13.9-33.5l13.9,33.5
		H141.5z"/>
	<polygon class="st0" points="258.4,50 218,50 237.7,111.5 	"/>
	<polygon class="st0" points="247.5,137 286.3,137 267.2,78.2 	"/>
	<polygon class="st0" points="456,93 432.2,68.1 432.2,117.3 	"/>
	<polygon class="st0" points="398.5,118.7 357.9,118.7 350.3,137 374.5,137 374.5,176.5 412.6,137.5 406.2,137.5 	"/>
	<polygon class="st0" points="364.4,103.3 392.1,103.3 378.2,69.8 	"/>
	<path d="M412.6,137.5h2c-0.3-0.4-0.6-0.7-0.9-1.1L412.6,137.5z"/>
	<path class="st2" d="M466.5,25.5c-20.8,0-39.4,9.4-51.9,24.1l17.6,18.5V50h66.1v16.3h-46v19H493V101h-40.6v20.3H500v16.3h-67.8
		v-20.1l-9.4,9.7l4.7,10.5h-12.9c12.5,14.7,31.1,24,51.9,24c37.6,0,68-30.4,68-68S504.1,25.5,466.5,25.5z"/>
	<path class="st2" d="M422.8,127l9.4-9.7V68.1l-17.6-18.5c-6.7,7.8-11.6,17.2-14.1,27.5L422.8,127z"/>
	<path d="M422.8,127l-9.1,9.3c0.3,0.4,0.6,0.8,0.9,1.1h12.9L422.8,127z"/>
	<path d="M398.5,93.5c0,16.2,5.7,31.1,15.2,42.8l9.1-9.3l-22.3-49.9C399.2,82.4,398.5,87.8,398.5,93.5z"/>
</g>
</svg>
